<?xml version="1.0" encoding="utf-8"?>
<!-- Generator: Adobe Illustrator 23.1.0, SVG Export Plug-In . SVG Version: 6.00 Build 0)  -->
<svg version="1.1" xmlns="http://www.w3.org/2000/svg" xmlns:xlink="http://www.w3.org/1999/xlink" x="0px" y="0px"
	 viewBox="0 0 1920 1080" style="enable-background:new 0 0 1920 1080;" xml:space="preserve">
<style type="text/css">
	.st0{fill:none;stroke:#000000;stroke-miterlimit:10;}
</style>
<g id="Layer_1">
</g>
<g id="Layer_2">
	<path class="st0" d="M734.5,441.5l55-74c-1.68-1.76-4.06-4.19-7-7c-3.33-3.18-8.6-8.2-15-13c-8.96-6.71-16.98-10.6-20-12
		c-11.62-5.38-21.14-7.11-32-9c-15.02-2.62-27.86-3.09-37-3c-9.57,0.1-28.79,0.42-52,7c-14.18,4.02-39.98,11.65-65,34
		c-21.38,19.09-32.15,39.97-37,51c-2.59,5.9-14.68,34.47-12,73c0.69,9.99,2.8,36.37,18,63c7.91,13.86,17.24,24.05,20,27
		c1.45,1.55,8.35,8.84,19,17c16.93,12.98,32.22,19.63,38,22c11.68,4.78,22.11,7.45,30,9c22.48,4.42,40.15,2.91,50,2
		c10.85-1.01,21.93-2.03,36-7c2.34-0.83,19.32-6.99,36-20c4.62-3.6,9.16-7.14,14-13c3.65-4.41,8.93-11.9,9-12"/>
	<path class="st0" d="M782.5,576.5l-3-2c-1.69,1.82-4.05,4.25-7,7c-1.27,1.19-6.71,6.26-12,10c-7.08,5.01-13.43,7.31-21,10
		c-20.29,7.2-36.92,7.88-41,8c-8.85,0.26-15.97-0.47-20-1c-9.15-1.2-16.06-3.13-19-4c-1.94-0.58-10.86-3.28-22-9
		c-4.3-2.21-10.81-5.58-18-11c-9.97-7.51-15.71-14.77-23-24c-10.93-13.82-17.21-25.58-19-29c-2.72-5.21-7.18-13.84-11-26
		c-3.94-12.53-5.2-22.44-6-29c-0.46-3.77-1.92-16.71-1-34c0.65-12.19,1.18-22.11,5-35c1.98-6.67,6.22-18.8,15-32
		c3.95-5.94,9.01-13.41,18-21c9.43-7.96,18.35-11.96,23-14c2-0.88,8.72-3.75,18-6c4.99-1.21,11.88-2.83,21-3
		c10.59-0.19,18.55,1.68,24,3c6.19,1.5,13.41,3.25,22,8c10.22,5.65,16.42,12.27,18,14c1.85,2.02,8.31,9.37,13,21
		c3.46,8.58,4.59,16.13,5,21c0.87,10.29-0.97,18.91-2,24c-0.88,4.34-1.84,8.39-2,9c-1,3.89-2.06,7.25-3,10"/>
	<path class="st0" d="M734.5,441.5"/>
	<line class="st0" x1="807.5" y1="419.5" x2="871.5" y2="419.5"/>
	<line class="st0" x1="868.5" y1="447.5" x2="871.5" y2="419.5"/>
	<path class="st0" d="M868.5,447.5v108c0.79,11.22,3.14,19.65,5,25c2.01,5.77,3.88,9.14,6,12c2.85,3.85,5.9,6.44,8,8
		c1.05,0.78,5.39,3.91,12,6c1.1,0.35,6.12,1.88,13,2c6.4,0.11,11.17-1.06,15-2c5.11-1.25,9-2.81,12-4c3.52-1.4,6.36-2.75,9-4
		c2.53-1.2,5.32-2.52,8-4c3.34-1.84,5.73-3.5,13-9c3.7-2.8,8.08-6.15,13-10"/>
	<path class="st0" d="M982.5,575.5v-124c-0.14-1.69-0.42-4.12-1-7c-0.9-4.47-1.45-7.17-3-10c-2.61-4.78-6.64-7.28-11-10
		c-3.2-1.99-6.06-3.25-8-4"/>
	<line class="st0" x1="959.5" y1="420.5" x2="959.5" y2="419.5"/>
	<line class="st0" x1="959.5" y1="419.5" x2="1023.5" y2="419.5"/>
	<line class="st0" x1="1023.5" y1="419.5" x2="1020.5" y2="449.5"/>
	<path class="st0" d="M1020.5,449.5v160c0.74,0.54,1.76,1.25,3,2c1,0.61,3.17,1.91,6,3c2.57,0.99,4.49,1.35,8,2
		c1.76,0.33,4.14,0.71,7,1"/>
	<line class="st0" x1="1044.5" y1="619.5" x2="982.5" y2="625.5"/>
	<path class="st0" d="M982.5,625.5v-40c-4.84,4.01-11.2,8.9-19,14c-5.12,3.35-13.36,8.69-25,14c-4.92,2.24-17.01,7.48-33,11
		c-9.6,2.11-15.97,2.59-22,2c-4.95-0.48-9.83-1.7-11-2c-3.32-0.85-5.85-1.51-9-3c-2.53-1.2-5.34-1.56-9-4c-3-2-5.42-5.47-7-7
		c-3.54-3.42-5.26-6.72-8-12c-1.31-2.51-3.27-6.63-5-12c-1.63-5.05-2.3-8.99-3-13c-0.74-4.29-0.93-6.72-1-8c-0.16-2.82-0.1-5.21,0-7
		"/>
	<path class="st0" d="M830.5,558.5v-105c0.02-2.24-0.14-5.37-1-9c-0.61-2.6-1.49-6.16-4-10c-2.48-3.79-5.33-5.97-8-8
		c-3.34-2.55-6.82-4.38-8-5c-0.82-0.43-1.51-0.76-2-1"/>
	<line class="st0" x1="807.5" y1="420.5" x2="807.5" y2="419.5"/>
	<line class="st0" x1="1044.5" y1="617" x2="1044.5" y2="620"/>
	<line class="st0" x1="1080.5" y1="596.5" x2="1076.5" y2="622.5"/>
	<path class="st0" d="M1076.5,622.5h68c-2.53-0.21-7.2-0.95-12-4c-5.04-3.2-7.52-7.21-8-8c-1.31-2.17-2.14-4.36-3-8
		c-1.01-4.27-2.12-10.7-2-19"/>
	<line class="st0" x1="1119.5" y1="583.5" x2="1119.5" y2="318.5"/>
	<line class="st0" x1="1119.5" y1="318.5" x2="1121.5" y2="302.5"/>
	<line class="st0" x1="1121.5" y1="302.5" x2="1046.5" y2="337.5"/>
	<path class="st0" d="M1046.5,337.5v3c4.1-2.1,7.59-3.3,10-4c4.41-1.29,7.82-1.69,17-3l0,0c1.63,0.44,3.58,1.28,5,3
		c2.49,3.01,2.06,7.09,2,8c-0.47,6.64-0.33,109.47,0,252"/>
	<path class="st0" d="M1366.5,603V433.5c-2.61-1.69-6.33-3.89-11-6c-4.89-2.21-10.34-4.1-19-6c-10.91-2.39-21.02-3.51-30-4
		c-7-0.38-19.71-1.02-36,1c-14.28,1.77-26.54,3.29-41,10c-20.85,9.67-32.97,23.94-38,30c-4.99,6.01-15.23,18.58-21,38
		c-4.52,15.22-4.24,27.69-4,38c0.21,8.98,0.48,17.84,4,29c3.97,12.58,9.86,21.07,12,24c1.43,1.95,8.43,11.37,21,20
		c11.43,7.84,21.67,11.07,28,13c13.96,4.27,25.19,4.75,32,5c7.12,0.26,16.58,0.54,28-2c8.65-1.93,16.73-5.1,19-6
		c2.88-1.14,5.27-2.2,7-3"/>
	<line class="st0" x1="1317.5" y1="614.5" x2="1382.5" y2="629.5"/>
	<path class="st0" d="M1382.5,629.5v-3c-2.12-1.08-4.6-2.67-7-5c-7.1-6.89-8.6-15.57-9-19"/>
	<path class="st0" d="M1327.5,447.5c-2.49-3.05-6.4-7.2-12-11c-8.4-5.7-16.17-7.62-22-9c-10.13-2.4-18.51-2.28-23-2
		c-5.56,0.34-13.64,0.84-23,5c-11.27,5.01-17.88,12.43-21,16c-9.38,10.75-12.8,21.68-15,29c-3.56,11.82-3.79,21.22-4,30
		c-0.17,7.18-0.37,18.54,3,33c1.52,6.51,4.79,18.06,12,31c3.05,5.47,7.26,12.92,15,21c3.29,3.44,9.3,9.61,19,15
		c3.95,2.19,11.34,6.22,22,8c9.58,1.6,17.29,0.63,21,0c5.05-0.86,10.19-1.65,16-5c6.16-3.55,9.96-8.12,12-11"/>
	<line class="st0" x1="1327.5" y1="597.5" x2="1327.5" y2="447.5"/>
</g>
</svg>
